<?xml version="1.0" encoding="UTF-8" standalone="no"?>
<svg
   width="16"
   height="16"
   viewBox="0 0 16 16"
   version="1.1"
   id="svg127"
   sodipodi:docname="kotlinBeansScriptIcon.svg"
   inkscape:version="1.1 (c4e8f9e, 2021-05-24)"
   xmlns:inkscape="http://www.inkscape.org/namespaces/inkscape"
   xmlns:sodipodi="http://sodipodi.sourceforge.net/DTD/sodipodi-0.dtd"
   xmlns="http://www.w3.org/2000/svg"
   xmlns:svg="http://www.w3.org/2000/svg">
  <sodipodi:namedview
     id="namedview129"
     pagecolor="#ffffff"
     bordercolor="#666666"
     borderopacity="1.0"
     inkscape:pageshadow="2"
     inkscape:pageopacity="0.0"
     inkscape:pagecheckerboard="0"
     showgrid="false"
     inkscape:zoom="43.875"
     inkscape:cx="3.4985755"
     inkscape:cy="8"
     inkscape:window-width="1680"
     inkscape:window-height="928"
     inkscape:window-x="-1"
     inkscape:window-y="25"
     inkscape:window-maximized="0"
     inkscape:current-layer="svg127" />
  <defs
     id="defs111">
    <linearGradient
       id="classkotlin-a"
       x1="-1.1785201"
       x2="5.3353303"
       y1="6.4358003"
       y2="-0.078120002"
       gradientUnits="userSpaceOnUse">
      <stop
         offset="10.75%"
         stop-color="#C757BC"
         id="stop98" />
      <stop
         offset="21.38%"
         stop-color="#D0609A"
         id="stop100" />
      <stop
         offset="42.54%"
         stop-color="#E1725C"
         id="stop102" />
      <stop
         offset="60.48%"
         stop-color="#EE7E2F"
         id="stop104" />
      <stop
         offset="74.3%"
         stop-color="#F58613"
         id="stop106" />
      <stop
         offset="82.32%"
         stop-color="#F88909"
         id="stop108" />
    </linearGradient>
  </defs>
  <g
     transform="translate(9,9)"
     id="g123"
     style="fill:none;fill-rule:evenodd">
    <polygon
       fill="#0eaeff"
       fill-rule="nonzero"
       points="3.512,3.488 7,7 0,7 "
       id="polygon117" />
    <polygon
       fill="#0eaeff"
       fill-rule="nonzero"
       points="3.512,0 0,3.792 0,0 "
       id="polygon119" />
    <polygon
       fill="url(#classkotlin-a)"
       fill-rule="nonzero"
       points="0,7 3.512,3.488 7,0 3.512,0 0,3.698 "
       id="polygon121"
       style="fill:url(#classkotlin-a)" />
  </g>
  <path
     id="path211"
     style="display:inline;stroke-width:0.999953;fill:#62b543;fill-opacity:0.69803923"
     d="M 7.0664062 1 C 5.7812988 0.98516775 4.5134426 1.3959649 3.375 2.3125 L 9.0605469 8 L 14.914062 8 C 14.650104 6.4311626 13.781279 4.8774207 12.451172 3.546875 C 10.857258 1.9531275 8.9446402 1.0216779 7.0664062 1 z M 2.3144531 3.375 C 0.056963635 6.1770268 0.86434074 9.7689188 3.5488281 12.453125 C 4.878357 13.783093 6.4308618 14.650421 8 14.914062 L 8 9.0605469 L 2.3144531 3.375 z " />
</svg>
